<?xml version="1.0" encoding="UTF-8" standalone="no"?>
<svg
   viewBox="0 0 894.63574 472.30133"
   version="1.1"
   id="svg43"
   sodipodi:docname="ZielonaCerekiewLogoCropped.svg"
   inkscape:version="1.1 (c68e22c387, 2021-05-23)"
   inkscape:export-filename="C:\Users\cgork\Downloads\zieloni\ZielonaCerekiew.png"
   inkscape:export-xdpi="96"
   inkscape:export-ydpi="96"
   width="894.63574"
   height="472.30133"
   xmlns:inkscape="http://www.inkscape.org/namespaces/inkscape"
   xmlns:sodipodi="http://sodipodi.sourceforge.net/DTD/sodipodi-0.dtd"
   xmlns="http://www.w3.org/2000/svg"
   xmlns:svg="http://www.w3.org/2000/svg">
  <defs
     id="defs47" />
  <sodipodi:namedview
     id="namedview45"
     pagecolor="#ffffff"
     bordercolor="#666666"
     borderopacity="1.0"
     inkscape:pageshadow="2"
     inkscape:pageopacity="0.0"
     inkscape:pagecheckerboard="0"
     showgrid="false"
     inkscape:zoom="0.887"
     inkscape:cx="474.6336"
     inkscape:cy="-8.4554679"
     inkscape:window-width="1920"
     inkscape:window-height="1137"
     inkscape:window-x="1912"
     inkscape:window-y="-8"
     inkscape:window-maximized="1"
     inkscape:current-layer="svg43" />
  <path
     d="m 3.5332388,187.04508 2.63645,1.28381 0.33295,0.93518 3.7508302,0.55337 1.46092,0.87432 -2.1404102,49.51513 a 6.2785609,5.1130958 0 0 0 6.0543232,5.2957 H 120.29816 a 6.2989458,5.1296968 0 0 0 6.29895,-5.11863 c 0,-0.0609 0,-0.12174 0,-0.18261 l -2.1744,-49.50959 1.46093,-0.89092 3.75762,-0.55337 0.33295,-0.93518 2.62966,-1.28381 -21.62162,-7.52024 v -22.26742 l 8.27628,-9.35187 -11.61262,-4.05064 -3.16646,-2.94944 7.41332,-8.72657 c 0,0 3.82558,-5.95974 -0.43488,-10.9511 -4.26045,-4.99135 -12.149419,-9.23013 -17.748479,-13.98354 -5.59906,-4.75341 -9.27515,-9.080717 -9.37028,-14.182747 l 1.29105,-0.70278 1.95695,-2.72255 1.4881,-2.57315 -5.02828,-2.34074 v -9.90524 l 1.05322,-1.20634 -0.76104,-0.47036 -0.0951,-4.63166 0.85617,-0.43163 4.26045,-5.64986 -5.31367,-3.07671 -1.24348,-1.05139 a 2.4665775,2.0087162 0 0 1 0.23782,-1.87038 c 0.76783,-1.05139 3.9275,-3.87356 1.20271,-7.24355 -2.72478,-3.37 -7.8482,-3.93443 -9.85951,-10.3258 l 1.86862,-2.41821 -1.86862,-1.2838 -1.10079,-1.40002 a 13.861758,11.288653 0 0 1 -1.14835,-3.54707 l 1.82105,-2.02532 -1.82105,-1.44428 -1.19592,-0.6585 -0.33295,-1.32808 0.95809,-1.0514 -0.76783,-0.74151 -0.95809,-0.77471 a 9.5741258,7.7969178 0 0 0 0.24462,-4.28858 45.85252,37.341094 0 0 1 -0.86297,-4.28305 l 1.05323,-1.28934 c 0,0 0.76103,-0.38735 -1.05323,-0.61977 v -0.84111 l -1.14835,-1.4055496 -1.14835,1.4055496 v 0.81898 c -1.82105,0.23241 -1.05322,0.61977 -1.05322,0.61977 l 1.05322,1.28934 a 45.85252,37.341094 0 0 1 -0.86296,4.28305 9.5741258,7.7969178 0 0 0 0.23782,4.28858 l -0.95129,0.77471 -0.76784,0.76364 0.95809,1.0514 -0.33974,1.32808 -1.19592,0.6585 -1.81426,1.44428 1.81426,2.02532 a 13.861758,11.288653 0 0 1 -1.14835,3.54707 l -1.10079,1.40002 -1.86182,1.2838 1.86182,2.41821 c -2.03849,6.39137 -7.12793,6.93367 -9.85272,10.3258 -2.72479,3.39213 0.43488,6.19216 1.19592,7.24355 a 2.4326026,1.9810479 0 0 1 0.23782,1.87038 l -1.24348,1.05139 -5.30688,3.07671 4.25366,5.64986 0.86296,0.43163 -0.0951,4.63166 -0.76783,0.47036 1.05322,1.20634 v 9.89417 l -5.02149,2.34074 1.48131,2.57315 1.96375,2.72256 1.29104,0.70277 c -0.0951,5.10203 -3.77801,9.407207 -9.37707,14.182747 -5.59906,4.77555 -13.48803,8.99772 -17.74849,13.98355 -4.26045,4.98582 -0.42808,10.9511 -0.42808,10.9511 l 7.41332,8.73763 -3.17325,2.96051 -11.605829,4.05063 8.283079,9.34081 v 22.28402 z"
     style="fill:#4dbe4f;stroke-width:0.613197"
     id="path11" />
  <path
     d="m 183.5324,459.79781 a 1.45,1.45 0 0 1 1.08,0.5 l 3,3.22 a 24,24 0 0 1 -8.27,6.16 28.36,28.36 0 0 1 -11.75,2.2 27.46,27.46 0 0 1 -10.85,-2.07 23.69,23.69 0 0 1 -8.35,-5.81 26.22,26.22 0 0 1 -5.35,-9 33.66,33.66 0 0 1 -1.9,-11.51 32.24,32.24 0 0 1 2,-11.5 26.07,26.07 0 0 1 5.56,-9 24.81,24.81 0 0 1 8.58,-5.83 28.56,28.56 0 0 1 11,-2.07 26.72,26.72 0 0 1 10.46,1.9 26.31,26.31 0 0 1 8,5.15 l -2.48,3.44 a 1.75,1.75 0 0 1 -0.6,0.64 1.69,1.69 0 0 1 -1,0.26 3.11,3.11 0 0 1 -1.7,-0.76 26.64,26.64 0 0 0 -2.63,-1.68 19.44,19.44 0 0 0 -10.07,-2.44 20.39,20.39 0 0 0 -7.87,1.49 17.1,17.1 0 0 0 -6.14,4.32 20.13,20.13 0 0 0 -4,6.89 27.8,27.8 0 0 0 -1.43,9.18 26.79,26.79 0 0 0 1.49,9.26 20.59,20.59 0 0 0 4.07,6.88 17.32,17.32 0 0 0 6.08,4.28 19.45,19.45 0 0 0 7.57,1.47 31.9,31.9 0 0 0 4.48,-0.29 18.53,18.53 0 0 0 3.68,-0.92 14.79,14.79 0 0 0 3.13,-1.57 21.81,21.81 0 0 0 2.89,-2.26 2,2 0 0 1 1.32,-0.53 z"
     style="fill:#4dbe4f"
     id="path27" />
  <path
     d="m 236.7524,465.13781 -0.05,6.12 h -34.2 v -55.5 h 34.2 v 6.12 h -26.68 v 18.44 h 21.61 v 5.88 h -21.61 v 18.94 z"
     style="fill:#4dbe4f"
     id="path29" />
  <path
     d="m 294.4624,471.25781 h -6.66 a 3.28,3.28 0 0 1 -3,-1.58 l -14.41,-19.84 a 4.41,4.41 0 0 0 -1.42,-1.33 5.09,5.09 0 0 0 -2.34,-0.41 h -5.69 v 23.16 h -7.48 v -55.5 h 15.69 a 34.85,34.85 0 0 1 9.1,1.06 17.6,17.6 0 0 1 6.33,3.08 12.42,12.42 0 0 1 3.7,4.87 16.36,16.36 0 0 1 1.2,6.37 16.09,16.09 0 0 1 -0.93,5.5 14.64,14.64 0 0 1 -2.69,4.59 16.57,16.57 0 0 1 -4.3,3.47 21.47,21.47 0 0 1 -5.75,2.16 7.5,7.5 0 0 1 2.48,2.34 z m -25.64,-28.62 a 19.29,19.29 0 0 0 5.75,-0.79 11.78,11.78 0 0 0 4.18,-2.25 9.16,9.16 0 0 0 2.54,-3.46 11.35,11.35 0 0 0 0.85,-4.46 c 0,-3.33 -1.08,-5.83 -3.25,-7.48 -2.17,-1.65 -5.42,-2.49 -9.76,-2.51 h -8.21 v 21 z"
     style="fill:#4dbe4f"
     id="path31" />
  <path
     d="m 342.3924,465.13781 v 6.12 h -34.2 v -55.5 h 34.2 v 6.12 h -26.7 v 18.44 h 21.61 v 5.88 h -21.61 v 18.94 z"
     style="fill:#4dbe4f"
     id="path33" />
  <path
     d="m 366.5824,440.07781 h 2.81 a 6.15,6.15 0 0 0 2.36,-0.37 4.27,4.27 0 0 0 1.63,-1.25 l 18.47,-20.92 a 4.38,4.38 0 0 1 1.63,-1.39 5,5 0 0 1 2.09,-0.39 h 6.35 l -21.15,23.9 a 11.35,11.35 0 0 1 -1.49,1.53 6.72,6.72 0 0 1 -1.53,1 6.18,6.18 0 0 1 1.9,1 10.25,10.25 0 0 1 1.66,1.76 l 22.08,26.31 h -6.51 a 7.63,7.63 0 0 1 -1.26,-0.09 3.27,3.27 0 0 1 -0.91,-0.31 3.1,3.1 0 0 1 -0.68,-0.51 6,6 0 0 1 -0.56,-0.67 l -19.13,-22 a 4.63,4.63 0 0 0 -1.67,-1.37 6.59,6.59 0 0 0 -2.71,-0.42 h -3.41 v 25.41 h -7.47 v -55.5 h 7.47 z"
     style="fill:#4dbe4f"
     id="path35" />
  <path
     d="m 424.1424,471.25781 h -7.52 v -55.5 h 7.52 z"
     style="fill:#4dbe4f"
     id="path37" />
  <path
     d="m 478.7524,465.13781 v 6.12 h -34.2 v -55.5 h 34.2 v 6.12 h -26.73 v 18.44 h 21.61 v 5.88 h -21.61 v 18.94 z"
     style="fill:#4dbe4f"
     id="path39" />
  <path
     d="m 567.3924,415.75781 -17.31,55.5 h -6.69 l -14.07,-42.33 c -0.12,-0.41 -0.25,-0.85 -0.36,-1.32 -0.11,-0.47 -0.24,-0.95 -0.37,-1.47 -0.13,0.52 -0.26,1 -0.38,1.47 l -0.39,1.32 -14.14,42.33 h -6.79 l -17.31,-55.5 h 6.23 a 2.82,2.82 0 0 1 1.69,0.5 2.25,2.25 0 0 1 0.87,1.28 l 11.46,38.58 c 0.18,0.7 0.36,1.45 0.53,2.24 0.17,0.79 0.33,1.66 0.48,2.56 0.18,-0.9 0.37,-1.76 0.56,-2.57 a 21.79,21.79 0 0 1 0.64,-2.23 l 13,-38.58 a 2.89,2.89 0 0 1 0.91,-1.22 2.49,2.49 0 0 1 1.65,-0.56 h 2.17 a 2.5,2.5 0 0 1 1.62,0.5 3,3 0 0 1 0.93,1.28 l 13,38.58 c 0.23,0.67 0.45,1.39 0.64,2.17 0.19,0.78 0.38,1.59 0.56,2.44 0.13,-0.85 0.27,-1.66 0.43,-2.44 0.16,-0.78 0.32,-1.5 0.5,-2.17 l 11.51,-38.58 a 2.36,2.36 0 0 1 0.86,-1.24 2.64,2.64 0 0 1 1.65,-0.54 z"
     style="fill:#4dbe4f"
     id="path41" />
  <text
     xml:space="preserve"
     style="font-style:normal;font-variant:normal;font-weight:normal;font-stretch:normal;font-size:192px;line-height:1.25;font-family:'Concert One';-inkscape-font-specification:'Concert One, Normal';font-variant-ligatures:normal;font-variant-caps:normal;font-variant-numeric:normal;font-variant-east-asian:normal;fill:#4dbe4f;fill-opacity:1;stroke:none"
     x="-6.5625"
     y="387.16406"
     id="text5631"><tspan
       sodipodi:role="line"
       id="tspan5629"
       x="-6.5625"
       y="387.16406">ZIELONA</tspan></text>
  <text
     xml:space="preserve"
     style="font-style:normal;font-weight:normal;font-size:40px;line-height:1.25;font-family:sans-serif;fill:#000000;fill-opacity:1;stroke:none"
     x="377.87946"
     y="343.19556"
     id="text32391"><tspan
       sodipodi:role="line"
       id="tspan32389"
       x="377.87946"
       y="343.19556" /></text>
  <path
     style="fill:#4dbe4f;fill-opacity:1;stroke-width:1.27273"
     d="m 779.05719,468.35603 c -18.86441,-7.94445 -34.56506,-20.18133 -45.77887,-35.67946 -2.87929,-3.97934 -5.63566,-7.24504 -6.12524,-7.25708 -0.48959,-0.0119 -1.72603,1.6085 -2.74764,3.60122 -2.95062,5.75538 -17.33393,17.32442 -30.74716,24.73112 -11.69691,6.45896 -35.41347,17.40551 -37.7104,17.40551 -0.58668,0 4.75746,-5.01385 11.87588,-11.14186 14.42644,-12.41924 20.81182,-21.34996 22.24229,-31.10849 l 0.908,-6.19429 -9.07579,5.34963 c -13.41208,7.90562 -38.10225,20.59634 -38.86766,19.97792 -0.36575,-0.29551 2.56233,-3.51707 6.50686,-7.15903 8.37408,-7.73173 11.92934,-11.88388 10.89267,-12.72146 -1.14548,-0.9255 -32.78761,5.07639 -46.21222,8.76556 -6.6053,1.81515 -12.1808,3.16201 -12.38998,2.99298 -1.72501,-1.39371 35.18119,-22.85091 55.3449,-32.17742 6.71209,-3.10461 16.00276,-8.42236 20.64589,-11.81721 7.37768,-5.39426 8.79691,-7.13455 11.25641,-13.80317 5.25125,-14.23802 14.9408,-65.32331 16.53995,-87.202 1.14032,-15.60129 -0.0315,-18.36767 -11.46752,-27.0701 -8.48053,-6.45345 -9.29288,-7.53085 -13.27904,-17.61192 -2.33525,-5.90587 -5.0276,-13.96799 -5.98302,-17.91578 -0.9554,-3.94781 -2.22592,-7.42194 -2.82338,-7.72028 -0.59747,-0.29833 -2.31761,1.14372 -3.82256,3.20452 -11.43573,15.65986 -33.5637,24.98997 -50.95591,21.48524 -14.96688,-3.01601 -29.12384,-13.43649 -37.85169,-27.86144 -8.12975,-13.43648 -9.94449,-20.77526 -9.95884,-40.27392 -0.0117,-14.80805 0.44184,-18.33584 3.30326,-25.73986 4.91742,-12.72404 12.59842,-23.73799 21.9397,-31.45985 7.01938,-5.80249 8.71673,-8.04826 10.97589,-14.52217 6.91923,-19.827857 19.3754,-33.766557 36.77708,-41.154237 5.0951,-2.16308 8.47382,-2.66729 17.87296,-2.66729 h 11.59014 L 672.8,61.607433 c 4.24774,-19.59777 20.93535,-43.22772 37.15458,-52.6115596 12.34163,-7.14038 21.56749,-9.47525005 35.23293,-8.91663005 19.25133,0.78698 35.02934,8.96653005 47.6482,24.70154965 7.1728,8.94407 8.37624,10.88135 12.90538,20.77495 3.24887,7.09691 3.6411,7.45282 9.5702,8.68469 10.42847,2.16668 18.51799,6.22552 28.12921,14.11354 11.45696,9.40286 17.60551,17.77395 23.50238,31.997827 6.26568,15.11354 8.56869,30.82433 6.75248,46.06455 l -1.41319,11.85857 5.9585,5.25414 c 7.15925,6.31294 9.26598,9.46865 13.18385,19.74826 11.67307,30.62746 -10.15014,67.85437 -38.48804,65.65436 -6.02315,-0.46759 -7.02802,-0.23242 -8.03363,1.88015 -0.63215,1.32805 -3.84605,4.88144 -7.14198,7.89643 -9.53901,8.72591 -21.00644,12.27856 -31.46303,9.74737 -6.15164,-1.48912 -17.68678,-9.21923 -20.82341,-13.95451 -1.08954,-1.64488 -2.40197,-2.99067 -2.91652,-2.99067 -0.51452,0 -2.057,4.21666 -3.4277,9.37033 -3.40038,12.78491 -6.8935,19.48684 -14.11704,27.08518 -7.64999,8.04687 -11.58946,14.27428 -12.76096,20.1722 -1.20448,6.06381 1.4711,61.03749 3.39636,69.78365 2.98325,13.55235 4.46087,15.3865 17.86868,22.18023 6.69109,3.39038 18.85318,11.24483 27.02688,17.45436 9.05586,6.8797 22.41129,15.33705 34.18853,21.64997 l 19.32722,10.35991 -8.49551,-0.71858 c -20.74097,-1.75438 -42.28918,-7.13753 -66.02503,-16.49431 l -13.81775,-5.44704 -1.67569,3.26855 c -4.21476,8.22117 1.93459,19.72914 18.26938,34.18955 4.93111,4.36529 8.32318,7.93688 7.53794,7.93688 -0.78525,0 -5.64346,-1.77538 -10.79603,-3.9453 z M 758.18904,267.6986 c 1.00508,-0.51519 5.35537,-7.80794 9.66726,-16.20608 l 7.8398,-15.26939 -0.96866,-9.23025 -0.96865,-9.23026 -7.28269,-5.38203 c -4.00547,-2.96012 -7.91984,-5.38914 -8.6986,-5.39781 -0.77876,-0.009 -3.2011,2.35916 -5.38298,5.26186 -3.92618,5.22323 -3.9573,5.41444 -3.01966,18.55374 0.73117,10.24589 0.40039,15.62086 -1.44924,23.54897 l -2.39666,10.27284 3.09531,2.02509 c 3.33425,2.1814 6.65137,2.54671 9.56477,1.05332 z m -43.59702,-25.19272 v -7.86058 l -6.99726,-0.74996 c -8.49016,-0.90996 -16.01165,-3.35006 -22.3316,-7.24476 -2.60163,-1.60327 -5.13512,-2.58791 -5.62999,-2.18808 -0.49487,0.39982 1.91183,5.2335 5.34822,10.74147 5.48828,8.79683 7.01617,10.32749 12.56566,12.5885 3.47471,1.41568 8.73131,2.57399 11.68132,2.57399 h 5.36365 z"
     id="path61954" />
</svg>
